<svg width="80" height="72" viewBox="0 0 80 72" fill="none" xmlns="http://www.w3.org/2000/svg">
<path d="M61.6497 40.2902C67.6843 39.9182 76.0233 39.3706 77.0256 46.7692C77.5836 52.6695 74.1116 57.3091 66.1447 60.0267L48.3094 64.47" stroke="white" stroke-width="4.1023" stroke-miterlimit="10"/>
<path d="M63.2615 32.9536H0.135634C-0.939025 49.3525 4.32061 62.6411 17.7642 70.5254C20.5748 71.3727 26.0825 71.724 31.6934 71.6C37.3044 71.724 42.812 71.383 45.6227 70.5254C59.0766 62.6411 64.3259 49.3525 63.2512 32.9536H63.2615ZM32.9851 51.4708C32.0241 53.3618 31.5591 58.8694 31.3008 61.0601C31.0838 58.5388 30.9288 53.6821 29.5234 51.3675C28.8621 50.2825 25.1731 49.0838 23.3545 48.5878C23.3648 48.5878 23.3855 48.5878 23.3958 48.5878C25.2351 48.8255 27.2811 48.5672 28.6348 47.5442C30.1434 46.3972 30.2054 44.7129 30.4121 43.0389C30.5774 41.9746 30.5774 40.9722 30.7118 40.0939C31.0011 41.7576 31.3111 45.1262 32.7784 46.6555C33.8014 47.7302 35.4857 47.9472 37.2424 47.9058C37.6557 47.9678 38.0794 47.9988 38.4927 47.9988C36.3847 48.5982 33.8531 49.7348 32.9747 51.4502L32.9851 51.4708Z" fill="white"/>
<path d="M55.0052 48.6913C46.5836 60.5745 32.9747 63.9742 21.3601 70.1121C24.1191 70.3911 27.4981 70.4945 30.9287 70.4221C36.5397 70.5461 42.0473 70.2051 44.8579 69.3475C57.2372 62.0935 62.6725 50.2619 62.6208 35.6404C60.6472 40.3213 57.9709 44.6406 55.0052 48.6913Z" fill="#E4E4E4"/>
<path d="M34.039 30.1017C34.07 29.5127 34.3697 29.275 34.8347 29.244L36.9116 29.399C37.3973 29.4093 37.79 29.5953 38.0173 30.0397V32.1787H45.1472V31.4553C45.1782 30.8353 45.4779 30.577 45.9636 30.546L48.0922 30.7113C48.5882 30.7217 48.9912 30.918 49.2289 31.3933V32.1787H56.5035C53.5585 30.1637 39.588 28.6447 23.6334 27.198L52.3185 22.3931L52.4942 17.4744C45.1679 14.7671 33.8943 12.3181 21.0191 9.98282C32.427 8.0815 44.5066 6.16985 48.1336 4.44419L48.2162 2.15021C44.7443 0.310886 39.7533 -0.133444 34.1113 0.0318882C38.7406 1.13755 43.6696 2.25354 44.1346 3.16287L16.2451 7.8335C15.3565 8.09183 15.0671 8.44316 15.1601 8.86683V11.9151L15.3771 12.3388C20.6988 14.4055 27.25 16.0794 34.473 17.5364C37.511 18.1461 40.2906 18.7971 42.1403 19.5514C28.8 21.3081 16.7928 23.1474 9.1875 25.307V29.7813C11.6778 30.7113 19.0971 31.4347 26.0514 32.189H34.039V30.112V30.1017ZM42.5123 1.64388C42.5329 1.77821 42.4193 1.79888 42.2746 1.79888L41.9336 1.74721C41.6546 1.69554 41.5719 1.60254 41.5409 1.48888V0.848216C41.5616 0.693217 41.5409 0.620884 41.6856 0.600218L42.1299 0.651884C42.3469 0.682884 42.4916 0.786216 42.5226 0.972215V1.64388H42.5123ZM45.1783 2.03654C45.2093 1.80921 45.1782 1.70588 45.3849 1.66454L46.0359 1.73688C46.3562 1.78854 46.5732 1.94354 46.6042 2.20187V2.6772C46.2012 2.84253 45.7156 2.93553 45.2093 3.0492C45.1989 3.0182 45.1782 2.99753 45.1679 2.96653V2.03654H45.1783ZM42.2849 4.17553C42.3366 3.99986 42.4813 3.85519 42.9773 3.77253L43.5663 3.7002C43.8143 3.7002 44.0106 3.7312 43.9796 3.93786V4.89885C43.9796 5.14685 43.7523 5.30185 43.4216 5.38452L42.5433 5.58085C42.2436 5.60152 42.3263 5.42585 42.2953 5.18819V4.17553H42.2849ZM35.713 5.40518C35.7647 5.21918 35.9196 5.05385 36.4156 4.97119L37.015 4.88852C37.2733 4.88852 37.4696 4.91952 37.4386 5.14685V6.19051C37.4386 6.44884 37.294 6.60384 36.8703 6.71751L35.93 6.89317C35.682 6.85184 35.7543 6.74851 35.713 6.49018V5.40518ZM28.583 6.70717C28.645 6.52118 28.8207 6.35584 29.3994 6.26284L30.0917 6.18018C30.3914 6.18018 30.6187 6.21118 30.5774 6.43851V7.4925C30.5774 7.75083 30.5774 7.94717 29.916 8.02983L28.831 8.21583C28.5417 8.1745 28.6244 8.07117 28.583 7.81283V6.70717ZM21.1224 7.84383C21.1844 7.63717 21.3601 7.4615 21.9387 7.3685L22.6311 7.2755C22.9307 7.2755 23.1581 7.31684 23.1167 7.5545V8.69116C23.1167 8.97016 23.0134 9.16649 22.4554 9.26982L21.3704 9.46616C21.0811 9.41449 21.1638 9.31116 21.1224 9.03216V7.84383ZM18.9834 12.0701C19.0351 12.3801 18.8078 12.5765 18.4151 12.5661L17.2888 12.2251C16.5551 12.0288 16.4311 11.8325 16.3484 11.5741V10.9438C17.1131 10.6338 17.9501 10.2928 18.9938 10.2101V12.0701H18.9834ZM46.7592 18.0014C46.8212 17.5778 46.7902 16.6788 47.4516 16.7304L49.1876 17.1334C49.8282 17.3091 49.7869 17.3918 49.8592 17.8878V20.0577C49.9109 20.4194 49.6216 20.5434 49.1566 20.5434L47.6066 20.2127C46.7386 19.9854 46.8626 19.7994 46.7592 19.4998V18.0014ZM25.9997 14.9634L24.7184 14.5708C23.8814 14.3435 23.7471 14.1161 23.6437 13.8268V12.2355C23.7057 11.8221 23.6437 11.1815 24.2844 11.2331L25.5657 11.3985C26.2374 11.4915 26.568 11.6361 26.6507 12.1321V14.3951C26.7024 14.7568 26.444 14.9738 25.9997 14.9634ZM34.1217 16.7304L32.7887 16.5651C31.9 16.3274 31.7553 16.0898 31.652 15.7694V14.0851C31.714 13.6408 31.6107 12.8245 32.2927 12.8761L33.8427 13.1758C34.5557 13.2688 34.7623 13.4548 34.845 13.9715V16.2344C34.8967 16.6168 34.597 16.7511 34.1217 16.7408V16.7304ZM41.9853 18.4871L40.6523 18.3218C39.7636 18.0841 39.619 17.8464 39.5156 17.5261V15.8418C39.5776 15.3974 39.4743 14.5811 40.1563 14.6328L41.7063 14.9324C42.4193 15.0254 42.6259 15.2114 42.7086 15.7281V17.9911C42.7603 18.3734 42.4606 18.5078 41.9853 18.4974V18.4871ZM39.7326 20.8741C39.8463 20.5641 40.1356 20.2954 41.1276 20.1507L42.3159 20.0164C42.8223 20.0164 43.2149 20.0784 43.1426 20.4504V22.7961C43.0599 23.3024 42.6776 23.4677 41.9129 23.5607L40.456 23.7364C39.7223 23.7881 39.7946 23.1267 39.7223 22.6927V20.8844L39.7326 20.8741ZM29.513 22.3827C29.6267 22.0727 29.947 21.8041 31.001 21.6594L32.272 21.5251C32.8093 21.5251 33.233 21.5871 33.1607 21.9591V24.3047C33.078 24.811 32.6647 24.9764 31.8483 25.0694L30.288 25.245C29.5027 25.2967 29.575 24.6354 29.5027 24.2014V22.3931L29.513 22.3827ZM15.6251 30.2257L14.3231 30.1017C13.2278 29.9673 12.9075 29.6987 12.7938 29.399V28.438C14.0441 28.1074 15.2945 27.8594 16.5448 27.6527C16.5448 27.663 16.5448 27.6734 16.5551 27.6837V29.8123C16.6171 30.174 16.1935 30.236 15.6355 30.2257H15.6251ZM20.4301 26.795L18.8284 26.9604C18.0224 27.012 18.0948 26.3714 18.0224 25.958V24.2117C18.1464 23.9121 18.4668 23.6537 19.5518 23.5091L20.8538 23.3851C21.4117 23.3851 21.8354 23.4367 21.7631 23.7984V26.0717C21.6804 26.5677 21.2567 26.7124 20.4198 26.8054L20.4301 26.795ZM26.351 31.4863L25.0491 31.3623C23.9537 31.228 23.6334 30.9593 23.5197 30.6597V28.9134C23.5921 28.5 23.8504 28.2107 24.3981 28.1384H25.7724C26.6094 28.2314 27.188 28.4587 27.281 28.9444V31.073C27.343 31.4347 26.9194 31.4967 26.3614 31.4863H26.351Z" fill="white"/>
</svg>
